<mxfile host="app.diagrams.net" modified="2023-04-02T13:50:35.278Z" agent="Mozilla/5.0 (Macintosh; Intel Mac OS X 10_15_7) AppleWebKit/537.36 (KHTML, like Gecko) Chrome/111.0.0.0 Safari/537.36" version="21.1.2" etag="etBeCOuZQATsVDyvfHxL" type="github">
  <diagram name="Page-1" id="wA-VNzIZNlFZpcw9Ax5d">
    <mxGraphModel>
      <root>
        <mxCell id="0" />
        <mxCell id="1" parent="0" />
      </root>
    </mxGraphModel>
  </diagram>
</mxfile>
